<svg id="Capa_1" data-name="Capa 1" xmlns="http://www.w3.org/2000/svg" viewBox="0 0 42.49 36.73"><defs><style>.cls-1{fill:#4f985c;}</style></defs><path class="cls-1" d="M13.94,19.1h.46a4.21,4.21,0,0,1,3.33,1.79A6.23,6.23,0,0,1,19.18,25a5.87,5.87,0,0,1-1.67,4.27A5.58,5.58,0,0,1,13.33,31,6.42,6.42,0,0,1,8,28.11,11.5,11.5,0,0,1,5.85,21,14.86,14.86,0,0,1,9,11.54a17.21,17.21,0,0,1,8.78-5.77V8a10.43,10.43,0,0,0-4.07,8.55ZM35.26,5.77V7.86a8.53,8.53,0,0,0-2.95,3.63,12,12,0,0,0-1.12,5.12,15.13,15.13,0,0,0,.2,2.49,5.36,5.36,0,0,1,3.82,1.76A6,6,0,0,1,36.64,25a5.75,5.75,0,0,1-1.76,4.27A6,6,0,0,1,30.48,31a6.44,6.44,0,0,1-5.37-2.7,11.16,11.16,0,0,1-2.06-7,15.88,15.88,0,0,1,1.45-6.62,14.09,14.09,0,0,1,3.89-5.22A24.94,24.94,0,0,1,35.26,5.77Z"/></svg>