<svg id="Capa_1" data-name="Capa 1" xmlns="http://www.w3.org/2000/svg" viewBox="0 0 42.49 36.73"><defs><style>.cls-1{fill:#4f985c;}</style></defs><path class="cls-1" d="M11.14,19.41V18.29a5.66,5.66,0,0,1-3.79-1.83,5.84,5.84,0,0,1-1.4-4A6.84,6.84,0,0,1,7.63,7.58a5.8,5.8,0,0,1,4.48-1.81A6.14,6.14,0,0,1,17.3,8.49a11.83,11.83,0,0,1,2,7.15Q19.29,26.82,7.12,31V29Q11.14,25.88,11.14,19.41Zm17.45.1V18.19Q23.21,17.47,23.2,12a6.25,6.25,0,0,1,1.7-4.51,5.82,5.82,0,0,1,4.36-1.75,6.31,6.31,0,0,1,5.27,2.65,11.3,11.3,0,0,1,2,7,15.39,15.39,0,0,1-3.24,9.72A16.73,16.73,0,0,1,24.52,31V29A12,12,0,0,0,28.59,19.51Z"/></svg>